<svg width="44" height="44" viewBox="0 0 44 44" fill="none" xmlns="http://www.w3.org/2000/svg">
<path d="M4 11C4 9.34315 5.34315 8 7 8H16.5949C17.4852 8 18.3296 8.39547 18.8995 9.07945L19.6005 9.92055C20.1704 10.6045 21.0148 11 21.9051 11H35.5501C36.9558 11 38.1477 12.0337 38.3465 13.4253C38.4275 13.9925 37.9873 14.5 37.4143 14.5H8.5C7.94772 14.5 7.5 14.9477 7.5 15.5V31L10.4319 19.2724C10.7658 17.9369 11.9657 17 13.3423 17H39.2868C39.9157 17 40.3885 17.5736 40.2684 18.1909L37.472 32.5726C37.1979 33.9823 35.9632 35 34.5271 35H7C5.34314 35 4 33.6569 4 32V11Z" fill="currentColor"/>
</svg>
