<svg width="44" height="44" viewBox="0 0 44 44" fill="none" xmlns="http://www.w3.org/2000/svg">
<path d="M6.04475 26.7612C7.59489 25.0056 9.82419 24 12.1662 24H21.8338C24.1758 24 26.4051 25.0056 27.9553 26.7612C29.2729 28.2534 30 30.1755 30 32.1662V35H4V32.1662C4 30.1755 4.72715 28.2534 6.04475 26.7612Z" fill="currentColor"/>
<path d="M27 24H30.9803C33.2514 24 35.439 24.8568 37.106 26.3992C38.951 28.1064 40 30.506 40 33.0197V35H31.7695V31.9414C31.7695 28.6162 29.9353 25.5623 27 24Z" fill="currentColor"/>
<rect x="11" y="8" width="13" height="14" rx="6.5" fill="currentColor"/>
<path d="M32 15C32 18.866 28.9152 22 24.5259 22C19.2171 22 25.604 21.9847 25.604 15C25.604 8.0131 18.2702 8 24.5259 8C29.2945 8 32 11.134 32 15Z" fill="currentColor"/>
</svg>
