<svg width="30" height="30" viewBox="0 0 30 30" fill="none" xmlns="http://www.w3.org/2000/svg">
<rect x="0.5" y="0.5" width="29" height="29" rx="4.5" fill="black" fill-opacity="0.5" stroke="#303030"/>
<circle cx="15" cy="15" r="11" fill="#D9D9D9"/>
<path d="M26 15C26 21.0751 21.0751 26 15 26C17 24 21.5 22.5 21.5 15C21.5 7.5 17 6 15 4C21.0751 4 26 8.92487 26 15Z" fill="#898989"/>
<circle cx="10.5" cy="8.5" r="2.5" fill="#898989" fill-opacity="0.57"/>
<circle cx="10.5" cy="8.5" r="2.5" fill="#898989" fill-opacity="0.57"/>
<circle cx="10.5" cy="8.5" r="2.5" fill="#898989" fill-opacity="0.57"/>
<circle cx="10.5" cy="8.5" r="2.5" fill="#898989" fill-opacity="0.57"/>
<circle cx="10.5" cy="8.5" r="2.5" fill="#898989" fill-opacity="0.57"/>
<circle cx="16.5" cy="13.5" r="1.5" fill="#898989" fill-opacity="0.57"/>
<circle cx="16.5" cy="13.5" r="1.5" fill="#898989" fill-opacity="0.57"/>
<circle cx="16.5" cy="13.5" r="1.5" fill="#898989" fill-opacity="0.57"/>
<circle cx="16.5" cy="13.5" r="1.5" fill="#898989" fill-opacity="0.57"/>
<circle cx="16.5" cy="13.5" r="1.5" fill="#898989"/>
<circle cx="10" cy="19" r="1" fill="#898989" fill-opacity="0.57"/>
<circle cx="10" cy="19" r="1" fill="#898989" fill-opacity="0.57"/>
<circle cx="10" cy="19" r="1" fill="#898989" fill-opacity="0.57"/>
<circle cx="10" cy="19" r="1" fill="#898989" fill-opacity="0.57"/>
<circle cx="10" cy="19" r="1" fill="#898989"/>
</svg>
