<svg width="44" height="44" viewBox="0 0 44 44" fill="none" xmlns="http://www.w3.org/2000/svg">
<path d="M16 8C16 6.89543 16.8954 6 18 6H26C27.1046 6 28 6.89543 28 8V16C28 17.1046 27.1046 18 26 18H18C16.8954 18 16 17.1046 16 16V8Z" fill="currentColor"/>
<path d="M16 28C16 26.8954 16.8954 26 18 26H26C27.1046 26 28 26.8954 28 28V36C28 37.1046 27.1046 38 26 38H18C16.8954 38 16 37.1046 16 36V28Z" fill="currentColor"/>
<path d="M31.1235 9.80322C32.08 9.25087 33.3032 9.57854 33.8556 10.5351L37.8561 17.463C38.4084 18.4196 38.0807 19.6428 37.1242 20.1951L30.1963 24.1956C29.2397 24.7479 28.0165 24.4203 27.4642 23.4637L23.4637 16.5358C22.9113 15.5793 23.239 14.356 24.1956 13.8037L31.1235 9.80322Z" fill="currentColor"/>
<path d="M13.8037 19.8044C14.7602 19.252 15.9834 19.5797 16.5358 20.5362L20.5362 27.4642C21.0886 28.4207 20.7609 29.6439 19.8044 30.1963L12.8765 34.1967C11.9199 34.7491 10.6967 34.4214 10.1443 33.4649L6.14387 26.537C5.59152 25.5804 5.91919 24.3572 6.87574 23.8049L13.8037 19.8044Z" fill="currentColor"/>
<path d="M6.87579 20.1952C5.91924 19.6429 5.59156 18.4197 6.1439 17.4631L10.1443 10.5352C10.6967 9.57862 11.9199 9.25094 12.8764 9.80328L19.8044 13.8037C20.7609 14.356 21.0886 15.5792 20.5363 16.5358L16.5359 23.4638C15.9835 24.4203 14.7603 24.748 13.8038 24.1956L6.87579 20.1952Z" fill="currentColor"/>
<path d="M24.1956 30.1963C23.2391 29.644 22.9114 28.4208 23.4637 27.4642L27.4641 20.5363C28.0165 19.5797 29.2397 19.252 30.1962 19.8044L37.1242 23.8048C38.0808 24.3571 38.4084 25.5803 37.8561 26.5369L33.8557 33.4649C33.3033 34.4214 32.0801 34.7491 31.1236 34.1967L24.1956 30.1963Z" fill="currentColor"/>
</svg>
