<svg width="50" height="50" viewBox="0 0 50 50" fill="none" xmlns="http://www.w3.org/2000/svg">
<rect width="50" height="50" rx="5" fill="currentColor" fill-opacity="0.5"/>
<path d="M17 28.5H33C35.4853 28.5 37.5 30.5147 37.5 33V33.6279C37.5 35.8811 35.8336 37.7872 33.6006 38.0879L17.6006 40.2412C14.9012 40.6046 12.5002 38.5059 12.5 35.7822V33C12.5 30.5147 14.5147 28.5 17 28.5Z" fill="#28BE46" fill-opacity="0.22" stroke="#28BE46"/>
<path d="M25 9.5C29.1421 9.5 32.5 12.8579 32.5 17C32.5 21.1421 29.1421 24.5 25 24.5C20.8579 24.5 17.5 21.1421 17.5 17C17.5 12.8579 20.8579 9.5 25 9.5Z" fill="#28BE46" fill-opacity="0.22" stroke="#28BE46"/>
</svg>
